# xmcd
#
# Track frame offsets:
#	150
#	11583
#	35287
#	48611
#	69862
#	84344
#	101522
#	134013
#	146878
#	159279
#	176735
#	190592
#	207883
#	222594
#
# Disc length: 3188 seconds
#
# Revision: 0
# Processed by: cddbd v1.5.2PL0 Copyright (c) Steve Scherf et al.
# Submitted via: dBpowerAMP V4.0
#
DISCID=c40c720e
DTITLE=BroJ - BroJs 14th
DYEAR=2007
DGENRE=
TTITLE0=Prelude
TTITLE1=Garage
TTITLE2=Jump
TTITLE3=Failure
TTITLE4=Coherent
TTITLE5=PRX
TTITLE6=One
TTITLE7=The Cymb
TTITLE8=CHJORB
TTITLE9=Dungeon
TTITLE10=Path
TTITLE11=KCV
TTITLE12=Devil Theme
TTITLE13=The Front
EXTD=added by Joshua Moerman
EXTT0=
EXTT1=
EXTT2=
EXTT3=
EXTT4=
EXTT5=
EXTT6=
EXTT7=
EXTT8=
EXTT9=
EXTT10=
EXTT11=
EXTT12=
EXTT13=
PLAYORDER=
